# xmcd
#
# Track frame offsets: 
#        150
#        20865
#        37445
#        58928
#        85898
#        107192
#        120879
#        140792
#        150771
#        172850
#        204676
#        222887
#
# Disc length: 3209 seconds
#
# Revision: 3
# Processed by: cddbd v1.5.2PL0 Copyright (c) Steve Scherf et al.
# Submitted via: ExactAudioCopy v0.99pb5
#
DISCID=ab0c870c
DTITLE=Sam Taylor - Desert Soul
DYEAR=1900
DGENRE=Blues
TTITLE0=L.A. quake
TTITLE1=Voice of the blues
TTITLE2=Ain't nothin' in the streets
TTITLE3=Best friends
TTITLE4=Sexy child
TTITLE5=It ain't me
TTITLE6=You got the nerve
TTITLE7=Mother blues
TTITLE8=Mother of the year
TTITLE9=Ain't no love
TTITLE10=Call the police
TTITLE11=Good stuff
EXTD=
EXTT0=
EXTT1=
EXTT2=
EXTT3=
EXTT4=
EXTT5=
EXTT6=
EXTT7=
EXTT8=
EXTT9=
EXTT10=
EXTT11=
PLAYORDER=
